# xmcd CD database file
#
# Track frame offsets:
#	187
#	21337
#	43575
#
# Disc length: 833 seconds
#
# Revision: 0
# Processed by: cddbd v1.5.1PL0 Copyright (c) Steve Scherf et al.
# Submitted via: CDex 1.51
#
DISCID=1e033f03
DTITLE=こだまさおり - エイリアンベイビー
DYEAR=1999
DGENRE=JPop
TTITLE0=エイリアンベイビー
TTITLE1=犬を飼おう
TTITLE2=大樹の朝
EXTD=YEAR: 1999
EXTT0=
EXTT1=
EXTT2=
PLAYORDER=
